<svg width="200" height="200" viewBox="0 0 200 200" fill="none" xmlns="http://www.w3.org/2000/svg">
<path d="M109.533 68.0917C109.242 67.5417 112.383 67.2417 112.942 67.2417C113.558 67.3167 111.308 71.0083 109.533 68.0917ZM91.6 42.4917L92.5 42.2333C93.0333 42.6917 91.9 43.025 92.075 43.3667C92.7917 44.6583 92.25 45.4333 92.1417 46.1333C92.025 46.8417 91.275 46.5333 90.9 46.9083C90.4583 47.4583 93.05 47.5333 93.0833 47.6167C93.175 47.8917 89.9583 48.3583 90.55 49.0417C91.35 50.175 97.4167 47.4167 96.45 47.575C98.325 46.6333 96.6917 46.5333 95.6417 45.9917C95.2833 44.2 94.9833 41.4333 93.8667 40.325L94.6 39.475C92.8833 36.9833 91.6 42.4917 91.6 42.4917V42.4917ZM200 100C200 155.225 155.225 200 100 200C44.7667 200 0 155.225 0 100C0 44.775 44.7667 0 100 0C155.225 0 200 44.775 200 100ZM130.75 55.2417C130.7 54.025 129.167 52.875 127.567 54.9833C126.442 56.4333 126.642 58.6417 126.033 59.625C125.167 61.0833 130.758 62.45 130.758 61.075C130.967 58.7667 136.858 60.55 138.008 60.8667C140.075 61.4417 143.367 58.9833 139.767 57.6917C136.808 56.6083 135.25 55.45 134.983 53.3333C134.983 53.3333 136.55 51.8667 135.867 51.95C134.05 52.175 130.75 58.5 130.75 55.2417V55.2417ZM183.217 100C183.217 91.375 181.742 82.6667 180.242 78.0667C179.758 76.6167 178.667 75.4667 177.25 74.9167C175.117 74.0833 166.108 79.8917 164.75 77.0333C163.858 75.125 162.05 78.25 159.983 77.1C158.983 76.55 156.2 72.8083 154.942 73.2667C152.367 74.1917 158.892 81.3 160.675 82.2333C162.35 80.9667 167.775 78.3583 168.942 81.9167C171.175 88.6167 162.8 95.9583 158.517 99.825C152.117 105.608 153.317 96.0833 148.958 92.725C146.667 90.9667 146.692 87.225 144.375 85.9333C143.342 85.35 138.6 79.8917 138.642 79.1583L138.5 80.5417C137.717 81.1333 136.05 78.3083 135.875 77.8667C135.875 80.325 139.875 84.2417 141.2 86.2083C143.458 89.5833 144.667 94.5 147.433 97.2583C148.917 98.7417 154.583 104.875 156.058 104.742C157.667 104.6 162.75 100.925 163.65 101.133C169.017 102.4 151.017 127.842 149.308 130.992C147.9 133.633 150.458 140.167 150.25 143.292C150.008 146.9 147.167 148.067 144.475 150.033C141.592 152.142 142.267 156.242 139.842 157.742C135.533 160.392 132.433 169.017 126.317 168.975C124.517 168.967 116.817 171.975 115.808 169.033C115.025 166.9 113.975 165.283 112.867 163.175C111.783 161.108 112.742 158.967 111.425 157.142C110.517 155.875 107.467 153 107.192 151.5C107.175 150.208 108.167 146.283 109.525 145.6C111.433 144.625 109.892 141.783 109.658 140.133C109.258 137.183 107.433 134.75 105.242 133.042C102 130.55 103.675 128.567 104.433 125.008C104.433 123.308 103.4 121.075 101.117 121.742C96.4167 123.108 97.8417 118.075 94.4167 118.3C91.95 118.475 89.9333 120.042 87.6417 120.733C84.7583 121.6 81.8083 120.05 78.9583 119.692C67.2333 118.208 63.4083 104.808 66.4667 95.1417C66.775 93.5583 65.5167 90.625 66.0667 89.4C67.3833 86.4667 70.0667 83.175 72.4167 80.95C73.7333 79.7 75.425 80.0167 76.975 79.0417C79.3667 77.5333 79.4 74.4333 81.7417 72.5333C85.075 69.825 89.625 69.8833 93.975 69.3C96.2917 68.9917 105.108 67.0833 106.5 68.8C106.5 69.1167 108.092 73.8333 106.342 73.5667C109.95 73.7583 115.092 79.8083 118.517 78.3917C120.275 77.6583 119.633 72.2583 123.242 74.8667C125.425 76.4333 135.208 77.1333 137.242 75.4417C138.492 74.4083 139.192 67.6917 137.675 66.9333C138.642 67.8917 132.583 67.9667 132.017 67.75C131.017 67.3833 130.083 68.7 128.475 67.9583C129.442 68.4167 123.092 65.0083 126.658 62.4C125.167 63.4917 123.775 62.0917 122.167 63.2917C121.058 64.1917 122.683 64.7917 121.1 65.575C118.583 66.85 116.683 61.2 115.733 60.5583C114.767 59.925 107.283 54.675 109.317 58.1L115.892 64.6417C115.567 64.85 114.167 62.2583 114.167 64.15C114.608 63.025 114.333 68.975 113.3 67.0417C112.842 66.3 114.05 65.8833 113.35 64.8083C113.35 64.1 111.45 63.4083 111.083 62.925C110.042 61.6333 107.275 58.7833 105.775 58.1C105.358 57.9083 99.4083 58.825 98.9083 59.0167C98.325 59.8333 97.825 60.6917 97.4167 61.6083C96.1833 62.0667 95.025 62.6583 93.925 63.3917L92.6167 66.3333C92.05 66.8417 86.2417 68.7583 86.2083 68.8333C86.45 68.2083 82.15 67.4083 82.4333 66.1583C82.75 64.7833 84.2083 60.4917 83.8333 58.925C83.4333 57.2833 92.7833 61.2917 93.3833 56.9667C93.625 55.0917 93.7667 52.9083 90.775 52.5917C91.3417 52.6583 96.5667 50.5417 97.4333 49.5917C98.65 48.1917 101.442 45.9083 103.467 45.9083C105.833 45.9083 105.325 42.4667 106.417 40.7833C107.508 41.225 105.833 43.9167 107.142 45.0083C107.058 44.15 110.85 45.4833 111.217 45.2833C112.083 44.8333 116.917 45.1 116.167 42.8333C115.333 40.525 116.592 41.2083 117.675 40.725C117.492 40.8 120.508 35.5667 121.025 37.2833C120.667 35.5167 117.517 37.9 116.417 37.8083C113.875 37.6083 114.95 33.475 115.908 32.2667C116.65 31.3083 113.883 30.1333 113.85 31.9667C113.8 34.7083 111.25 37.1917 111.842 40.8333C112.742 46.325 105.717 39.5083 105.1 39.8833C102.767 41.3 100.858 38.1 102.067 36.1833C103.3 34.225 106.275 34.3167 107.5 32.2167C108.367 30.7333 109.375 29.0083 110.708 27.8833C115.167 24.1417 116.4 27.1333 120.842 27.5417C125.183 27.9417 122.308 28.575 121.708 30.2417C121.133 31.825 124.092 32.3917 125.117 31.0667C125.7 30.3 127.025 28.375 127.6 26.95C128.342 25.1 135.108 25.3083 130.383 22.4833C127.267 20.625 113.683 16.8833 104.583 16.8833C102.617 16.8833 101.242 19.075 99.7417 20.3167C96.775 22.775 89.175 27.6 84.95 26.1333C80.625 24.6417 71.3667 31.6333 69.8833 31.6833C69.3417 31.7167 69.9167 26.4 72.8667 26.0083C71.5917 26.2 83.2583 20.1167 82.9417 18.85C82.5583 17.35 59.6167 25.7 60.6417 27.375C61.1333 28.1417 63.1333 28.1417 60.5083 29.825C59.0083 30.7333 57.4083 36.5 56 36.5C51.7917 38.3417 51.525 32.875 46.8417 39.9083L39.3917 42.9083C28.325 54.6667 20.6667 69.5583 17.8917 86.1C17.7833 86.7583 20.675 87.9833 21.05 88.4333C21.9833 89.55 21.9833 94.3667 22.4417 95.9417C23.5917 99.925 26.4333 102.142 28.6083 105.767C29.8917 107.925 32.025 113.383 31.35 115.65C32.25 114.167 40.2667 122.442 41.7333 124.167C45.1833 128.225 47.8417 133.142 42.2417 137.158C40.4333 138.458 44.9917 146.567 42.6417 148.558L39.6333 149.333C36.6667 151.158 38.0083 155.633 39.8083 157.517C54.9583 173.358 76.3083 183.242 99.975 183.242C145.95 183.242 183.217 145.975 183.217 100V100ZM87.325 47.025C88.3667 46.5667 89.7667 46.5833 89.9167 45.1917C90.0417 43.9583 90.2833 44.8083 90.5833 44.3583C90.875 43.9167 90.025 43.2083 89.6667 43.1417C89.1333 43.025 88.7667 43.7167 88.425 44.0083L87.825 44.1667L87.2583 44.8917L87.325 45.2917L86.6 46.175C85.8917 46.875 86.6167 47.3333 87.325 47.025V47.025Z" fill="#D6D6D6"/>
</svg>
